<svg width="168" height="128" viewBox="0 0 168 128" fill="none" xmlns="http://www.w3.org/2000/svg">
<ellipse cx="32.2668" cy="28.4444" rx="32.2668" ry="28.4444" transform="matrix(0.897621 0.440769 0 1 91.9711 0)" fill="#1B6BD2"/>
<path d="M100.454 12.4963C106.11 9.71922 113.522 10.582 120.934 14.2217L139.037 5.33286C131.624 1.69306 124.212 0.830327 118.556 3.60738L100.454 12.4963Z" fill="#1D85FF"/>
<path d="M149.898 56.889C149.898 41.1796 136.931 22.0771 120.935 14.2224L139.037 5.3335C155.033 13.1882 168 32.2907 168 48.0002L149.898 56.889Z" fill="#0972ED"/>
<path d="M141.415 72.8365C147.07 70.0595 149.898 64.1685 149.898 56.8889L168 48C168 55.2796 165.172 61.1706 159.517 63.9477L141.415 72.8365Z" fill="#0972ED"/>
<ellipse cx="12.1001" cy="10.6667" rx="12.1001" ry="10.6667" transform="matrix(0.897621 0.440769 0 1 33.4441 63.4844)" fill="#1B6BD2"/>
<path d="M36.6255 68.1708C38.7463 67.1294 41.5259 67.4529 44.3056 68.8178L116.714 33.2623C113.934 31.8973 111.155 31.5738 109.034 32.6152L36.6255 68.1708Z" fill="#1D85FF"/>
<path d="M55.1666 84.8178C55.1666 78.9267 50.3038 71.7633 44.3053 68.8178L116.714 33.2622C122.712 36.2077 127.575 43.3712 127.575 49.2622L55.1666 84.8178Z" fill="#0972ED"/>
<path d="M51.9855 90.7981C54.1063 89.7567 55.1667 87.5476 55.1666 84.8178L127.575 49.2622C127.575 51.992 126.515 54.2012 124.394 55.2426L51.9855 90.7981Z" fill="#0972ED"/>
<ellipse cx="32.2668" cy="28.4444" rx="32.2668" ry="28.4444" transform="matrix(0.897621 0.440769 0 1 0 42.6667)" fill="#1B6BD2"/>
<path d="M8.48291 55.1629C14.1383 52.3859 21.5507 53.2486 28.9631 56.8884L47.0652 47.9995C39.6528 44.3597 32.2405 43.497 26.585 46.2741L8.48291 55.1629Z" fill="#1D85FF"/>
<path d="M57.9269 99.5557C57.9269 83.8463 44.9595 64.7438 28.9635 56.8891L47.0656 48.0002C63.0617 55.8549 76.029 74.9574 76.029 90.6668L57.9269 99.5557Z" fill="#0972ED"/>
<path d="M49.4435 115.503C55.0989 112.726 57.9266 106.835 57.9266 99.5556L76.0287 90.6667C76.0287 97.9462 73.201 103.837 67.5456 106.614L49.4435 115.503Z" fill="#0972ED"/>
</svg>
